<?xml version="1.0" encoding="UTF-8" standalone="no"?>
<svg
   xmlns:dc="http://purl.org/dc/elements/1.1/"
   xmlns:cc="http://creativecommons.org/ns#"
   xmlns:rdf="http://www.w3.org/1999/02/22-rdf-syntax-ns#"
   xmlns:svg="http://www.w3.org/2000/svg"
   xmlns="http://www.w3.org/2000/svg"
   xmlns:sodipodi="http://sodipodi.sourceforge.net/DTD/sodipodi-0.dtd"
   xmlns:inkscape="http://www.inkscape.org/namespaces/inkscape"
   height="48px"
   id="Layer_1"
   style="enable-background:new 0 0 48 48;"
   version="1.1"
   viewBox="0 0 48 48"
   width="48px"
   xml:space="preserve"
   sodipodi:docname="bike.svg"
   inkscape:version="1.0.2 (e86c8708, 2021-01-15)"><metadata
     id="metadata953"><rdf:RDF><cc:Work
         rdf:about=""><dc:format>image/svg+xml</dc:format><dc:type
           rdf:resource="http://purl.org/dc/dcmitype/StillImage" /></cc:Work></rdf:RDF></metadata><defs
     id="defs951" /><sodipodi:namedview
     pagecolor="#ffffff"
     bordercolor="#666666"
     borderopacity="1"
     objecttolerance="10"
     gridtolerance="10"
     guidetolerance="10"
     inkscape:pageopacity="0"
     inkscape:pageshadow="2"
     inkscape:window-width="1392"
     inkscape:window-height="847"
     id="namedview949"
     showgrid="false"
     inkscape:zoom="13.3125"
     inkscape:cx="24"
     inkscape:cy="24"
     inkscape:window-x="0"
     inkscape:window-y="25"
     inkscape:window-maximized="1"
     inkscape:current-layer="layer1" /><circle
     cx="38.053"
     cy="26.135"
     r="8.947"
     style="fill:none;stroke:#231F20;stroke-miterlimit:10;"
     id="circle912" /><circle
     cx="9.976"
     cy="25.869"
     r="8.947"
     style="fill:none;stroke:#231F20;stroke-miterlimit:10;"
     id="circle914" /><circle
     cx="38.771"
     cy="25.913"
     r="1.491"
     style="fill:none;stroke:#231F20;stroke-miterlimit:10;"
     id="circle916" /><circle
     cx="10.077"
     cy="25.562"
     r="1.491"
     style="fill:none;stroke:#231F20;stroke-miterlimit:10;"
     id="circle918" /><line
     style="fill:none;stroke:#231F20;stroke-miterlimit:10;"
     x1="38.093"
     x2="32.927"
     y1="24.654"
     y2="11.49"
     id="line920" /><line
     style="fill:none;stroke:#231F20;stroke-miterlimit:10;"
     x1="23.053"
     x2="11.568"
     y1="25.768"
     y2="25.768"
     id="line922" /><line
     style="fill:none;stroke:#231F20;stroke-miterlimit:10;"
     x1="23.952"
     x2="16.544"
     y1="24.337"
     y2="14.442"
     id="line924" /><line
     style="fill:none;stroke:#231F20;stroke-miterlimit:10;"
     x1="16.312"
     x2="34.39"
     y1="14.506"
     y2="14.506"
     id="line926" /><line
     style="fill:none;stroke:#231F20;stroke-miterlimit:10;"
     x1="32.779"
     x2="25.271"
     y1="14.327"
     y2="24.637"
     id="line928" /><line
     style="fill:none;stroke:#231F20;stroke-miterlimit:10;"
     x1="16.865"
     x2="10.645"
     y1="14.224"
     y2="23.978"
     id="line930" /><line
     style="fill:none;stroke:#231F20;stroke-miterlimit:10;"
     x1="16.75"
     x2="16.75"
     y1="14.867"
     y2="13.016"
     id="line932" /><path
     d="M13.896,12.431c0,0.386,0.313,0.697,0.698,0.697h4.042c0.384,0,0.698-0.311,0.698-0.697l0,0  c0-0.386-0.314-0.698-0.698-0.698h-4.042C14.208,11.733,13.896,12.045,13.896,12.431L13.896,12.431z"
     style="fill:#231F20;"
     id="path934" /><path
     d="M32.848,11.996c0,0,4.787-1.749,4.787,1.439"
     style="fill:none;stroke:#231F20;stroke-miterlimit:10;"
     id="path936" /><path
     d="M3.563,16.298l0.771,0.819c3.176-2.338,7.458-2.414,10.687-0.279l0.794-0.748  C12.149,13.542,7.192,13.581,3.563,16.298z"
     style="fill:#231F20;"
     id="path938" /><path
     d="M40.12,19.026l-0.155,0.77c2.612,0.869,4.38,3.282,4.461,5.985l0.746,0.152  C45.152,22.814,43.133,20,40.12,19.026z"
     style="fill:#231F20;"
     id="path940" /><circle
     cx="24.522"
     cy="25.446"
     r="1.469"
     style="fill:none;stroke:#231F20;stroke-miterlimit:10;"
     id="circle942" /><line
     style="fill:none;stroke:#231F20;stroke-miterlimit:10;"
     x1="24.852"
     x2="25.751"
     y1="26.976"
     y2="29.254"
     id="line944" /><path
     d="M24.334,30.264c0.125,0.289,0.459,0.422,0.748,0.296l2.092-0.906c0.288-0.126,0.42-0.461,0.295-0.75  l0,0c-0.125-0.288-0.46-0.422-0.749-0.296l-2.091,0.907C24.34,29.64,24.208,29.976,24.334,30.264L24.334,30.264z"
     style="fill:#231F20;"
     id="path946" /><ellipse
     style="fill:#010000;fill-opacity:0.408108"
     id="path955"
     cx="24.112677"
     cy="24"
     rx="24.112677"
     ry="24" /><g
     inkscape:groupmode="layer"
     id="layer1"
     inkscape:label="bg"><path
       style="fill:#ffffff;fill-opacity:1;stroke-width:0.0751174"
       d="M 22.835681,47.914263 C 20.377486,47.800818 17.664923,47.224984 15.380387,46.331622 14.936198,46.157923 13.981221,45.720821 13.258216,45.360285 7.9923057,42.734365 3.8106561,38.14349 1.6603407,32.627416 -0.47402567,27.152255 -0.49833792,21.033863 1.5924785,15.549296 2.4146625,13.392567 3.8877974,10.803638 5.2599933,9.1039008 8.6739974,4.8749781 13.341026,1.9264621 18.591549,0.68134505 c 3.656116,-0.86701693 7.734653,-0.82871737 11.455399,0.10757206 1.762586,0.44353729 2.974527,0.89495969 4.732395,1.76271599 4.694866,2.3175806 8.419901,5.9782396 10.769184,10.5830709 1.30537,2.558656 2.077007,5.048551 2.465064,7.954191 0.177893,1.331999 0.177893,4.490211 0,5.82221 -1.080392,8.089606 -5.897783,14.877412 -13.121572,18.488571 -3.808653,1.903939 -7.700292,2.715617 -12.056338,2.514587 z M 40.401035,35.315654 c 3.631175,-0.934602 6.403438,-3.953913 6.998359,-7.622011 0.500026,-3.083006 -0.514673,-6.178405 -2.731077,-8.331311 -1.450596,-1.409036 -3.087582,-2.239464 -5.086082,-2.580121 -0.853286,-0.145448 -2.680481,-0.112461 -3.462596,0.06251 l -0.46252,0.103474 -0.908372,-2.300974 c -0.499604,-1.265536 -0.908371,-2.319553 -0.908371,-2.342259 0,-0.08483 0.930669,-0.220222 1.505042,-0.21896 0.731746,0.0016 1.097747,0.09536 1.372854,0.351648 0.242064,0.225508 0.352151,0.471814 0.352151,0.787895 v 0.220462 h 0.569983 0.569983 l -0.04933,-0.319248 c -0.197719,-1.279518 -0.84913,-1.9032 -2.192283,-2.098967 -0.509605,-0.07428 -0.751882,-0.06888 -1.463449,0.0326 -0.876745,0.125037 -1.733035,0.353964 -1.960015,0.524008 -0.118654,0.08889 -0.09388,0.183578 0.320062,1.223109 0.24677,0.619718 0.448788,1.135211 0.448928,1.14554 1.4e-4,0.01033 -3.599745,0.01878 -7.999745,0.01878 h -8 V 13.558685 13.14554 h 0.816048 c 0.78155,0 0.824419,-0.0084 1.014085,-0.198037 0.151507,-0.151508 0.198036,-0.272644 0.198036,-0.515578 0,-0.242934 -0.04653,-0.364071 -0.198036,-0.515579 L 18.946649,11.71831 h -2.324173 -2.324174 l -0.219573,0.219574 c -0.162562,0.162561 -0.219574,0.290839 -0.219574,0.494041 0,0.203202 0.05701,0.331479 0.219574,0.494041 0.219409,0.219409 0.220283,0.219574 1.164319,0.219574 h 0.944745 v 0.569332 c 0,0.568552 -6.01e-4,0.570286 -0.451308,1.266005 l -0.451309,0.696674 -0.619113,-0.320349 c -2.915443,-1.508541 -6.5778504,-1.543173 -9.4829644,-0.08967 -0.7521558,0.376322 -1.6150235,0.929106 -1.6150235,1.034641 0,0.09256 0.668786,0.824589 0.7533486,0.824589 0.031203,0 0.3481016,-0.182927 0.7042177,-0.406503 2.3145998,-1.453151 5.3014526,-1.777307 7.9181136,-0.859335 0.722603,0.253502 1.666574,0.721321 1.666574,0.825931 0,0.147731 -0.390996,0.67519 -0.474327,0.639872 -2.167068,-0.918455 -3.951674,-1.144738 -5.9854458,-0.758939 -4.5787268,0.868571 -7.88240084,5.090859 -7.63724793,9.760851 0.23352816,4.44855 3.45658183,8.105001 7.82471993,8.876896 1.9118638,0.337846 4.0982818,0.02026 5.8491698,-0.849616 2.703795,-1.343298 4.60237,-3.880799 5.118618,-6.84118 0.06161,-0.353319 0.112024,-0.773182 0.112024,-0.933028 v -0.29063 h 1.652583 c 0.90892,0 1.652582,0.02772 1.652582,0.0616 0,0.03388 0.121941,0.204058 0.270982,0.378178 0.305163,0.356515 0.724153,0.597233 1.172862,0.673833 l 0.303,0.05173 0.34388,0.895761 c 0.207761,0.541186 0.311973,0.906395 0.263272,0.922629 -0.373809,0.124602 -0.739992,0.385526 -0.799089,0.56939 -0.12327,0.383515 0.186985,0.803694 0.593437,0.803694 0.215306,0 2.396794,-0.981463 2.527712,-1.137231 0.296796,-0.353133 0.03924,-0.966055 -0.40594,-0.966055 -0.115906,0 -0.348036,0.05494 -0.515844,0.122079 -0.167808,0.06714 -0.314889,0.109397 -0.326846,0.0939 -0.01196,-0.0155 -0.157288,-0.367688 -0.322957,-0.782638 l -0.301216,-0.754456 0.316246,-0.275101 c 0.639923,-0.556665 0.856932,-1.541287 0.510218,-2.31498 l -0.153764,-0.343123 3.359939,-4.614623 3.359939,-4.614623 0.406367,-0.02202 0.406367,-0.02203 0.441133,1.131383 c 0.242623,0.62226 0.427668,1.14172 0.411211,1.154355 -0.01646,0.01263 -0.215839,0.100221 -0.443069,0.194636 -1.835856,0.762809 -3.585794,2.455243 -4.576946,4.426547 -0.707094,1.406342 -0.945686,2.49567 -0.940074,4.292059 0.0035,1.114527 0.03081,1.42314 0.17957,2.028169 0.946836,3.85082 3.839758,6.562418 7.741206,7.256003 0.370195,0.06581 0.975509,0.0906 1.765258,0.07228 1.037936,-0.02407 1.323183,-0.05909 2.091176,-0.256763 z"
       id="path958" /><path
       style="fill:#ffffff;fill-opacity:1;stroke-width:0.0751174"
       d="m 24.976526,23.497568 c -0.144601,-0.04165 -0.423103,-0.0605 -0.618892,-0.04189 l -0.355982,0.03385 -3.160327,-4.214246 -3.160328,-4.214246 3.503213,-0.01953 c 1.926768,-0.01074 5.052581,-0.01074 6.946252,0 l 3.44304,0.01953 -3.091916,4.258723 c -1.700553,2.342297 -3.125717,4.257559 -3.167032,4.256136 -0.04132,-0.0014 -0.193427,-0.03667 -0.338028,-0.07832 z"
       id="path960" /><path
       style="fill:#ffffff;fill-opacity:1;stroke-width:0.0751174"
       d="m 36.753834,34.43751 c -2.146376,-0.33421 -4.13068,-1.55126 -5.505079,-3.376477 -0.458775,-0.609259 -1.043093,-1.809089 -1.273227,-2.614426 -0.994978,-3.481857 0.388908,-7.271109 3.381301,-9.258416 0.718653,-0.477271 1.57961,-0.915289 1.653613,-0.841286 0.0433,0.0433 1.90712,4.747951 2.231544,5.632865 l 0.157819,0.430475 -0.160029,0.170464 c -0.484722,0.516331 -0.615759,1.506496 -0.291517,2.202811 0.461299,0.990647 1.759059,1.440979 2.728031,0.946646 0.359555,-0.183431 0.822596,-0.681214 0.979521,-1.053016 0.151508,-0.358968 0.1528,-1.174309 0.0024,-1.523314 -0.162562,-0.377262 -0.625107,-0.870947 -0.991129,-1.057855 -0.179017,-0.09141 -0.511166,-0.170808 -0.801907,-0.191679 l -0.496311,-0.03563 -1.148598,-2.921663 c -0.631729,-1.606914 -1.130106,-2.940154 -1.107504,-2.962756 0.09434,-0.09434 1.269431,-0.251481 1.896617,-0.253632 2.55633,-0.0088 5.000817,1.163519 6.604888,3.167462 0.876211,1.094639 1.506058,2.512994 1.730498,3.896923 0.909443,5.607745 -3.973716,10.517156 -9.590942,9.642503 z m 8.354216,-9.603352 c -0.284574,-1.948946 -1.426397,-3.754151 -3.111306,-4.918928 -0.516055,-0.356749 -1.630766,-0.910535 -1.832806,-0.910535 -0.0666,0 -0.275529,0.744529 -0.221834,0.790514 0.01119,0.0096 0.277979,0.135658 0.592874,0.280174 2.131365,0.978157 3.549239,2.920455 3.802128,5.208408 l 0.05726,0.518054 0.375587,0.08016 0.375587,0.08016 0.02455,-0.267471 c 0.0135,-0.147108 -0.01441,-0.534352 -0.06204,-0.860542 z"
       id="path962" /><path
       style="fill:#ffffff;fill-opacity:1;stroke-width:0.0751174"
       d="m 19.41784,25.023907 c 0,-0.364953 -0.220571,-1.438883 -0.426292,-2.07555 -0.585349,-1.811548 -1.770272,-3.492266 -3.246106,-4.60434 l -0.583882,-0.439969 0.735771,-1.149639 c 0.404674,-0.632302 0.749343,-1.163212 0.765932,-1.1798 0.02471,-0.02471 1.306232,1.675511 6.306505,8.366932 0.04474,0.05987 0.01045,0.185835 -0.09866,0.362379 -0.09198,0.148833 -0.208897,0.411758 -0.259809,0.584281 l -0.09257,0.313677 -1.550446,0.0203 -1.550446,0.0203 z"
       id="path964" /><path
       style="fill:#ffffff;fill-opacity:1;stroke-width:0.0751174"
       d="m 12.056338,25.123768 c 0,-0.180272 -0.294569,-0.724501 -0.526934,-0.973533 l -0.210269,-0.225352 1.59846,-2.500594 c 0.879153,-1.375327 1.617045,-2.519179 1.639759,-2.541894 0.06956,-0.06956 0.840784,0.541166 1.396979,1.106253 1.264736,1.284958 2.143381,3.087578 2.367149,4.856422 l 0.04989,0.394367 h -3.157517 c -2.79291,0 -3.157517,-0.01336 -3.157517,-0.115669 z"
       id="path966" /><path
       style="fill:#ffffff;fill-opacity:1;stroke-width:0.0751174"
       d="M 8.4755239,34.14655 C 6.2624077,33.727316 4.242506,32.398768 3.0162622,30.555838 2.3267617,29.519582 1.915129,28.504541 1.6827758,27.267606 1.5464267,26.541749 1.5675563,25.020079 1.7244982,24.262911 c 0.6249549,-3.015103 2.7781612,-5.441329 5.6621441,-6.380087 0.9209636,-0.29978 1.6415132,-0.407318 2.6790857,-0.399839 1.179941,0.0085 2.197933,0.224447 3.321912,0.704659 l 0.2421,0.103436 -1.651929,2.590667 -1.651929,2.590666 -0.4681055,0.07662 C 8.7746446,23.726319 8.0751174,24.495815 8.0751174,25.51 c 0,0.596416 0.1285244,0.960617 0.4798434,1.359736 0.9064086,1.029735 2.5710872,0.904947 3.2439302,-0.243173 l 0.196605,-0.335482 h 3.194102 3.194101 l -0.05392,0.507042 c -0.142672,1.341677 -0.805864,3.024755 -1.60725,4.078954 -0.475085,0.62496 -1.422176,1.531638 -2.033678,1.946901 -0.693397,0.470877 -1.774633,0.959409 -2.611681,1.180029 -0.905723,0.23872 -2.7157726,0.310357 -3.6016481,0.142544 z"
       id="path968" /><path
       style="fill:#ffffff;fill-opacity:1;stroke-width:0.0751174"
       d="m 24.057282,26.248609 c -0.451272,-0.244857 -0.579877,-0.973171 -0.242617,-1.373982 0.393385,-0.467512 1.028928,-0.467512 1.422313,0 0.214114,0.25446 0.254906,0.726968 0.08863,1.026612 -0.231887,0.417877 -0.834303,0.582868 -1.268326,0.34737 z"
       id="path970" /><path
       style="fill:#ffffff;fill-opacity:1;stroke-width:0.0751174"
       d="m 38.57277,26.843037 c -0.664389,-0.218882 -0.944554,-0.872413 -0.609527,-1.421819 0.139655,-0.229018 0.5557,-0.482251 0.792306,-0.482251 0.471857,0 0.94342,0.488111 0.94342,0.976526 0,0.590801 -0.61382,1.096347 -1.126199,0.927544 z"
       id="path972" /><path
       style="fill:#ffffff;fill-opacity:1;stroke-width:0.0751174"
       d="M 9.599891,26.369238 C 9.0459568,26.031485 8.9788124,25.32278 9.4590505,24.882674 c 0.6217535,-0.569795 1.5456445,-0.140326 1.5456445,0.718489 0,0.694292 -0.804457,1.134128 -1.404804,0.768075 z"
       id="path974" /></g></svg>
