<?xml version="1.0" ?><!DOCTYPE svg  PUBLIC '-//W3C//DTD SVG 1.1//EN'  'http://www.w3.org/Graphics/SVG/1.1/DTD/svg11.dtd'><svg height="48px" id="Layer_1" style="enable-background:new 0 0 48 48;" version="1.1" viewBox="0 0 48 48" width="48px" xml:space="preserve" xmlns="http://www.w3.org/2000/svg" xmlns:xlink="http://www.w3.org/1999/xlink"><circle cx="38.053" cy="26.135" r="8.947" style="fill:none;stroke:#231F20;stroke-miterlimit:10;"/><circle cx="9.976" cy="25.869" r="8.947" style="fill:none;stroke:#231F20;stroke-miterlimit:10;"/><circle cx="38.771" cy="25.913" r="1.491" style="fill:none;stroke:#231F20;stroke-miterlimit:10;"/><circle cx="10.077" cy="25.562" r="1.491" style="fill:none;stroke:#231F20;stroke-miterlimit:10;"/><line style="fill:none;stroke:#231F20;stroke-miterlimit:10;" x1="38.093" x2="32.927" y1="24.654" y2="11.49"/><line style="fill:none;stroke:#231F20;stroke-miterlimit:10;" x1="23.053" x2="11.568" y1="25.768" y2="25.768"/><line style="fill:none;stroke:#231F20;stroke-miterlimit:10;" x1="23.952" x2="16.544" y1="24.337" y2="14.442"/><line style="fill:none;stroke:#231F20;stroke-miterlimit:10;" x1="16.312" x2="34.39" y1="14.506" y2="14.506"/><line style="fill:none;stroke:#231F20;stroke-miterlimit:10;" x1="32.779" x2="25.271" y1="14.327" y2="24.637"/><line style="fill:none;stroke:#231F20;stroke-miterlimit:10;" x1="16.865" x2="10.645" y1="14.224" y2="23.978"/><line style="fill:none;stroke:#231F20;stroke-miterlimit:10;" x1="16.75" x2="16.75" y1="14.867" y2="13.016"/><path d="M13.896,12.431c0,0.386,0.313,0.697,0.698,0.697h4.042c0.384,0,0.698-0.311,0.698-0.697l0,0  c0-0.386-0.314-0.698-0.698-0.698h-4.042C14.208,11.733,13.896,12.045,13.896,12.431L13.896,12.431z" style="fill:#231F20;"/><path d="M32.848,11.996c0,0,4.787-1.749,4.787,1.439" style="fill:none;stroke:#231F20;stroke-miterlimit:10;"/><path d="M3.563,16.298l0.771,0.819c3.176-2.338,7.458-2.414,10.687-0.279l0.794-0.748  C12.149,13.542,7.192,13.581,3.563,16.298z" style="fill:#231F20;"/><path d="M40.12,19.026l-0.155,0.77c2.612,0.869,4.38,3.282,4.461,5.985l0.746,0.152  C45.152,22.814,43.133,20,40.12,19.026z" style="fill:#231F20;"/><circle cx="24.522" cy="25.446" r="1.469" style="fill:none;stroke:#231F20;stroke-miterlimit:10;"/><line style="fill:none;stroke:#231F20;stroke-miterlimit:10;" x1="24.852" x2="25.751" y1="26.976" y2="29.254"/><path d="M24.334,30.264c0.125,0.289,0.459,0.422,0.748,0.296l2.092-0.906c0.288-0.126,0.42-0.461,0.295-0.75  l0,0c-0.125-0.288-0.46-0.422-0.749-0.296l-2.091,0.907C24.34,29.64,24.208,29.976,24.334,30.264L24.334,30.264z" style="fill:#231F20;"/></svg>