<?xml version="1.0" ?><!DOCTYPE svg  PUBLIC '-//W3C//DTD SVG 1.1//EN'  'http://www.w3.org/Graphics/SVG/1.1/DTD/svg11.dtd'><svg height="48px" id="Layer_1" style="enable-background:new 0 0 48 48;" version="1.1" viewBox="0 0 48 48" width="48px" xml:space="preserve" xmlns="http://www.w3.org/2000/svg" xmlns:xlink="http://www.w3.org/1999/xlink"><path d="M22.881,12.943c-0.148,0.149-0.447,0.092-0.667-0.127l0,0c-0.22-0.22-0.277-0.519-0.128-0.668  l2.01-2.01c0.149-0.149,0.448-0.092,0.668,0.128l0,0c0.22,0.22,0.277,0.519,0.128,0.668L22.881,12.943z" style="fill:#231F20;"/><path d="M36.658,12.943c0.148,0.149,0.447,0.092,0.668-0.127l0,0c0.219-0.22,0.277-0.519,0.127-0.668  l-2.01-2.01c-0.148-0.149-0.447-0.092-0.668,0.128l0,0c-0.219,0.22-0.275,0.519-0.127,0.668L36.658,12.943z" style="fill:#231F20;"/><path d="M35.635,10.531c0,0.276-0.213,0.5-0.479,0.5H24.424c-0.265,0-0.478-0.224-0.478-0.5l0,0  c0-0.276,0.213-0.5,0.478-0.5h10.732C35.422,10.031,35.635,10.254,35.635,10.531L35.635,10.531z" style="fill:#231F20;"/><path d="M10.03,11.156c0-0.276,0.224-0.5,0.5-0.5l0,0c0.276,0,0.5,0.224,0.5,0.5v1.375  c0,0.276-0.224,0.5-0.5,0.5l0,0c-0.276,0-0.5-0.224-0.5-0.5V11.156z" style="fill:#231F20;"/><path d="M13.614,11.114c0-0.276,0.224-0.5,0.5-0.5l0,0c0.276,0,0.5,0.224,0.5,0.5v1.375  c0,0.276-0.224,0.5-0.5,0.5l0,0c-0.276,0-0.5-0.224-0.5-0.5V11.114z" style="fill:#231F20;"/><path d="M10.03,11.088c0-0.265,0.229-0.479,0.513-0.479h3.559c0.283,0,0.513,0.214,0.513,0.479l0,0  c0,0.265-0.229,0.479-0.513,0.479h-3.559C10.259,11.567,10.03,11.353,10.03,11.088L10.03,11.088z" style="fill:#231F20;"/><g><path d="M41.404,33.281c0,1.649-1.35,3-3,3H9.238c-1.65,0-3-1.351-3-3   V15.614c0-1.65,1.35-3,3-3h29.167c1.65,0,3,1.35,3,3V33.281z" style="fill:none;stroke:#231F20;stroke-miterlimit:10;"/></g><circle cx="29.739" cy="24.448" r="8.5" style="fill:none;stroke:#231F20;stroke-miterlimit:10;"/><circle cx="29.74" cy="24.448" r="6.417" style="fill:none;stroke:#231F20;stroke-miterlimit:10;"/><circle cx="12.655" cy="18.864" r="2.083" style="fill:none;stroke:#231F20;stroke-miterlimit:10;"/><path d="M17.238,26.719c0,0.265-0.215,0.479-0.479,0.479H10.55c-0.265,0-0.479-0.214-0.479-0.479l0,0  c0-0.266,0.215-0.479,0.479-0.479h6.208C17.023,26.239,17.238,26.453,17.238,26.719L17.238,26.719z" style="fill:#231F20;"/><path d="M18.655,28.885c0,0.266-0.257,0.48-0.574,0.48h-7.436c-0.317,0-0.574-0.215-0.574-0.48l0,0  c0-0.264,0.257-0.479,0.574-0.479h7.436C18.398,28.406,18.655,28.621,18.655,28.885L18.655,28.885z" style="fill:#231F20;"/><path d="M20.322,31.178c0,0.265-0.308,0.479-0.688,0.479h-8.915c-0.381,0-0.688-0.214-0.688-0.479l0,0  c0-0.266,0.308-0.479,0.688-0.479h8.915C20.014,30.698,20.322,30.912,20.322,31.178L20.322,31.178z" style="fill:#231F20;"/><path d="M9.068,17.311c0.6-1.39,1.979-2.36,3.59-2.36s2.99,0.97,3.59,2.36" style="fill:none;stroke:#231F20;stroke-miterlimit:10;"/></svg>