<?xml version="1.0" ?><!DOCTYPE svg  PUBLIC '-//W3C//DTD SVG 1.1//EN'  'http://www.w3.org/Graphics/SVG/1.1/DTD/svg11.dtd'><svg height="48px" id="Layer_1" style="enable-background:new 0 0 80 48;" version="1.1" viewBox="0 0 80 48" width="80px" xml:space="preserve" xmlns="http://www.w3.org/2000/svg" xmlns:xlink="http://www.w3.org/1999/xlink"><g><path d="M13.68,37.459V6.87c0-1.1,0.9-2,2-2h49.339c1.1,0,2,0.9,2,2   v30.589" style="fill:none;stroke:#231F20;stroke-miterlimit:10;"/></g><rect height="26.413" style="fill:none;stroke:#231F20;stroke-miterlimit:10;" width="46.555" x="17.016" y="8.368"/><circle cx="40.139" cy="6.559" r="0.488" style="fill:#231F20;"/><rect height="0.925" style="fill:#231F20;" transform="matrix(0.7073 0.7069 -0.7069 0.7073 24.3872 -39.0558)" width="4.486" x="57.11" y="9.457"/><rect height="0.924" style="fill:#231F20;" transform="matrix(0.7071 0.7071 -0.7071 0.7071 24.9522 -37.3743)" width="8.657" x="53.263" y="10.971"/><polygon points="59.783,17.902 50.41,8.532 51.068,7.88 60.439,17.249 " style="fill:#231F20;"/><g><path d="M73.641,40.309c0,0.549-0.45,1-1,1H7.274c-0.55,0-1-0.451-1-1   v-1.393c0-0.551,0.45-1,1-1h65.366c0.55,0,1,0.449,1,1V40.309z" style="fill:none;stroke:#231F20;stroke-miterlimit:10;"/></g><line style="fill:none;stroke:#231F20;stroke-miterlimit:10;" x1="6.84" x2="10.026" y1="41.152" y2="43.311"/><line style="fill:none;stroke:#231F20;stroke-miterlimit:10;" x1="9.717" x2="69.969" y1="43.363" y2="43.363"/><line style="fill:none;stroke:#231F20;stroke-miterlimit:10;" x1="69.607" x2="72.795" y1="43.438" y2="41.281"/></svg>