<?xml version="1.0" ?><svg height="32" id="svg4475" version="1.1" width="32" xmlns="http://www.w3.org/2000/svg" xmlns:cc="http://creativecommons.org/ns#" xmlns:dc="http://purl.org/dc/elements/1.1/" xmlns:inkscape="http://www.inkscape.org/namespaces/inkscape" xmlns:rdf="http://www.w3.org/1999/02/22-rdf-syntax-ns#" xmlns:sodipodi="http://sodipodi.sourceforge.net/DTD/sodipodi-0.dtd" xmlns:svg="http://www.w3.org/2000/svg"><defs id="defs4477"/><g id="layer1" transform="translate(0,-1020.3622)"><g id="g10414" transform="translate(309.5948,-461.25192)"><g id="g15415" transform="translate(66.405195,515.25192)"><g id="g15417" transform="translate(-150,-49.999983)"><g id="g14600" transform="translate(-49.999995,-130.00002)"><path d="m 16,0.25 c -0.52497,0 -0.89873,0.31705 -1.28125,0.71875 -0.38252,0.4016 -0.76848,0.9228 -1.15625,1.5625 -0.77553,1.2796 -1.51783,2.96195 -2.03125,4.65625 -0.01866,0.049971 -0.02926,0.1029452 -0.03125,0.15625 l 0,0.28125 c -0.0052,0.041448 -0.0052,0.083552 0,0.125 l 0,1 0,1 c -0.0052,0.041448 -0.0052,0.083552 0,0.125 l 0,1.09375 c -3.26e-4,0.01041 -3.26e-4,0.02084 0,0.03125 -0.0474,0.1262 -0.0762,0.27985 -0.125,0.40625 -1.46832,3.8074 -3.61898,7.70165 -7.4375,9.90625 -0.033469,0.01722 -0.064985,0.03823 -0.09375,0.0625 -1.027212,0.560458 -2.0423732,1.160795 -3,1.875 C 0.72255054,23.292993 0.61940634,23.384677 0.5625,23.5 0.44399114,23.646115 0.41863758,23.86162 0.5,24.03125 l 0,2.71875 c 2.618e-5,0.261792 0.23820777,0.499974 0.5,0.5 l 9.5,0 0,0.5 c 0,0.760313 0.575234,1.376971 1.3125,1.46875 l 0.71875,2.1875 C 12.595862,31.602661 12.793251,31.747412 13,31.75 l 6,0 c 0.206749,-0.0026 0.404138,-0.147339 0.46875,-0.34375 l 0.75,-2.1875 C 20.941896,29.113883 21.5,28.500135 21.5,27.75 l 0,-0.5 9.5,0 c 0.261792,-2.6e-5 0.499974,-0.238208 0.5,-0.5 l 0,-2.875 c 0.02105,-0.08155 0.02105,-0.168446 0,-0.25 -0.0089,-0.02153 -0.01939,-0.04243 -0.03125,-0.0625 3.25e-4,-0.01041 3.25e-4,-0.02084 0,-0.03125 -0.0089,-0.02153 -0.01939,-0.04243 -0.03125,-0.0625 -0.01894,-0.02262 -0.03988,-0.04356 -0.0625,-0.0625 -0.0099,-0.01087 -0.02038,-0.0213 -0.03125,-0.03125 3.25e-4,-0.01041 3.25e-4,-0.02084 0,-0.03125 -0.02007,-0.01186 -0.04097,-0.02231 -0.0625,-0.03125 -0.0068,-0.0051 -0.0244,0.0051 -0.03125,0 -0.0099,-0.01087 -0.02038,-0.0213 -0.03125,-0.03125 -1.006505,-0.751923 -2.071042,-1.384179 -3.15625,-1.96875 -3.84755,-2.2214 -5.99973,-6.1656 -7.46875,-10 -0.03204,-0.08372 -0.06377,-0.166473 -0.09375,-0.25 l 0,-1.21875 c 0.0029,-0.031158 0.0029,-0.062592 0,-0.09375 l 0,-1 0,-1 c 0.0029,-0.031158 0.0029,-0.062592 0,-0.09375 l 0,-0.3125 C 20.498006,7.2904452 20.487411,7.2374713 20.46875,7.1875 19.95533,5.4932 19.21303,3.81085 18.4375,2.53125 18.04973,1.89155 17.66377,1.37035 17.28125,0.96875 16.89873,0.56705 16.52497,0.25 16,0.25 z m 0,1 c -0.025,0 0.22627,0.08605 0.53125,0.40625 0.30498,0.3202 0.66902,0.80865 1.03125,1.40625 0.666522,1.0996837 1.359516,2.5553371 1.84375,4.03125 C 18.694051,6.9484097 17.496535,6.75 16,6.75 14.503465,6.75 13.305949,6.9484097 12.59375,7.09375 13.077984,5.6178371 13.770978,4.1621837 14.4375,3.0625 14.79973,2.4649 15.16377,1.97645 15.46875,1.65625 15.77373,1.33615 16.02497,1.25 16,1.25 z m 0,6.5 c 1.73202,0 3.17521,0.3612 3.5,0.4375 l 0,0.5625 0,0.4375 C 19.01574,9.0753 17.76848,8.75 16,8.75 c -1.76848,0 -3.01574,0.3253 -3.5,0.4375 l 0,-0.4375 0,-0.5625 C 12.82479,8.1115 14.26798,7.75 16,7.75 z m 0,2 c 1.622455,0 3.030962,0.30312 3.5,0.40625 l 0,0.8125 c -0.0082,0.05166 -0.0082,0.104595 0,0.15625 l 0,0.0625 c -0.0029,0.03116 -0.0029,0.06259 0,0.09375 l 0,4.46875 0,0.96875 0,2.0625 0,0.5625 0,5.90625 -7,0 0,-8.53125 0,-0.96875 0,-4.5625 0,-1.03125 C 12.969038,10.05312 14.377545,9.75 16,9.75 z m -4.5,3.9375 0,2.0625 0,0.96875 0,1.9375 c -1.331302,0.237176 -2.6528046,0.582312 -3.9375,1.03125 1.7039071,-1.758639 2.968145,-3.865664 3.9375,-6 z m 9,0 c 0.965727,2.130216 2.210734,4.210392 3.90625,5.96875 -1.280382,-0.446844 -2.582625,-0.764091 -3.90625,-1 l 0,-1.9375 0,-0.96875 z m -7,5.0625 c -0.277,0 -0.5,0.223 -0.5,0.5 0,0.277 0.223,0.5 0.5,0.5 l 5,0 c 0.277,0 0.5,-0.223 0.5,-0.5 0,-0.277 -0.223,-0.5 -0.5,-0.5 z m -2,0.90625 0,5.6875 c -0.421806,0.147965 -0.75024,0.488135 -0.90625,0.90625 l -9.09375,0 0,-1.5 7.5,0 0,0.4375 c -0.00374,0.264156 0.2358173,0.507121 0.5,0.507121 0.2641827,0 0.503736,-0.242965 0.5,-0.507121 l 0,-1.90625 c 0.0052,-0.296166 -0.3027936,-0.555551 -0.59375,-0.5 -0.2292012,0.04373 -0.4103617,0.2667 -0.40625,0.5 l 0,0.46875 -7.15625,0 c 0.7596934,-0.54216 1.5399934,-1.024931 2.34375,-1.46875 0.092895,-0.01694 0.1807096,-0.06085 0.25,-0.125 2.2342036,-1.200558 4.6170693,-2.046401 7.0625,-2.5 z m 9,0.03125 c 2.449226,0.453268 4.826338,1.2708 7.0625,2.46875 0.07764,0.06963 0.177544,0.114029 0.28125,0.125 0.790652,0.436718 1.563843,0.935928 2.3125,1.46875 L 23,23.75 23,23.28125 c 0.0052,-0.296166 -0.302794,-0.555551 -0.59375,-0.5 -0.229201,0.04373 -0.410362,0.2667 -0.40625,0.5 l 0,1.90625 c -0.0037,0.264156 0.235817,0.507121 0.5,0.507121 0.264183,0 0.503736,-0.242965 0.5,-0.507121 l 0,-0.4375 7.5,0 0,1.5 -9.09375,0 C 21.25024,25.831885 20.921806,25.491715 20.5,25.34375 z m -7,1.0625 c -0.277,0 -0.5,0.223 -0.5,0.5 0,0.277 0.223,0.5 0.5,0.5 l 5,0 c 0.277,0 0.5,-0.223 0.5,-0.5 0,-0.277 -0.223,-0.5 -0.5,-0.5 z m 0,2 c -0.277,0 -0.5,0.223 -0.5,0.5 0,0.277 0.223,0.5 0.5,0.5 l 5,0 c 0.277,0 0.5,-0.223 0.5,-0.5 0,-0.277 -0.223,-0.5 -0.5,-0.5 z m -1.5,3.5 8,0 c 0.28566,0 0.5,0.2144 0.5,0.5 l 0,1 c 0,0.2856 -0.21434,0.5 -0.5,0.5 l -8,0 c -0.28566,0 -0.5,-0.2144 -0.5,-0.5 l 0,-1 c 0,-0.2856 0.21434,-0.5 0.5,-0.5 z m 0.84375,3 6.28125,0 -0.46875,1.5 -5.3125,0 z" id="path11556" style="font-size:medium;font-style:normal;font-variant:normal;font-weight:normal;font-stretch:normal;text-indent:0;text-align:start;text-decoration:none;line-height:normal;letter-spacing:normal;word-spacing:normal;text-transform:none;direction:ltr;block-progression:tb;writing-mode:lr-tb;text-anchor:start;baseline-shift:baseline;color:#000000;fill:#000000;fill-opacity:1;stroke:none;stroke-width:1;marker:none;visibility:visible;display:inline;overflow:visible;enable-background:accumulate;font-family:Sans;-inkscape-font-specification:Sans" transform="translate(-176,1146.3622)"/></g></g></g></g></g></svg>