<?xml version="1.0" ?><!DOCTYPE svg  PUBLIC '-//W3C//DTD SVG 1.1//EN'  'http://www.w3.org/Graphics/SVG/1.1/DTD/svg11.dtd'><svg height="48px" id="Layer_1" style="enable-background:new 0 0 48 48;" version="1.1" viewBox="0 0 48 48" width="48px" xml:space="preserve" xmlns="http://www.w3.org/2000/svg" xmlns:xlink="http://www.w3.org/1999/xlink"><path d="M5.478,31.046c0,0-0.615-3.073,5.839-3.073  c0,0,9.478-2.356,13.935-9.733c4.457-7.376-0.359-4.251,14.752-1.331c0,0,1.025-0.104,0.975,0.819  c-0.053,0.922,1.742,10.348,1.076,12.601c0,0,1.074-0.102,0.408,4.148c0,0-4.508,1.59-19.62,1.129  C7.732,35.143,5.222,33.043,5.222,33.043S4.146,32.225,5.478,31.046z" style="fill:none;stroke:#231F20;stroke-miterlimit:10;"/><path d="M26.656,15.668c0,0,2.264,0.828,4.639-0.828" style="fill:none;stroke:#231F20;stroke-miterlimit:10;"/><path d="M41.342,21.906c0,0-10.27,7.067-15.182,7.232  C21.246,29.305,25,24.502,25,24.502l0.995-1.326c0,0-0.995,4.252,3.422,2.319c4.418-1.933,11.539-5.134,11.539-5.134" style="fill:none;stroke:#231F20;stroke-miterlimit:10;"/><path d="M16.792,25.605c0,0,1.026,6.93,5.448,6.846" style="fill:none;stroke:#231F20;stroke-miterlimit:10;"/><path d="M5.478,31.046c0,0,23.118,3.563,36.577-0.718" style="fill:none;stroke:#231F20;stroke-miterlimit:10;"/><circle cx="24.625" cy="21.857" r="0.479" style="fill:#010101;"/><circle cx="23.375" cy="23.108" r="0.479" style="fill:#010101;"/><circle cx="21.957" cy="24.213" r="0.479" style="fill:#010101;"/><circle cx="20.292" cy="25.295" r="0.479" style="fill:#010101;"/><path d="M34.4,26.104c0.859,1.67,1.41,3.521,1.33,5.48" style="fill:none;stroke:#231F20;stroke-miterlimit:10;"/><path d="M33.031,23.895c-2.861-3.91-6.932-6.43-6.932-6.43" style="fill:none;stroke:#231F20;stroke-miterlimit:10;"/><path d="M41.27,17.646c0,0,3.018-0.014,0.391,4.533" style="fill:none;stroke:#231F20;stroke-miterlimit:10;"/><path d="M24.791,18.854c0,0.03,0,0.069,0,0.11" style="fill:none;stroke:#231F20;stroke-miterlimit:10;"/><path d="M6.041,29.604c0,0,5.192-0.08,7.584,0.09  c0.971,0.07,2.504-0.5,3.986-1.2" style="fill:none;stroke:#231F20;stroke-miterlimit:10;"/></svg>