<?xml version="1.0" ?><!DOCTYPE svg  PUBLIC '-//W3C//DTD SVG 1.1//EN'  'http://www.w3.org/Graphics/SVG/1.1/DTD/svg11.dtd'><svg height="48px" id="Layer_1" style="enable-background:new 0 0 48 48;" version="1.1" viewBox="0 0 48 48" width="48px" xml:space="preserve" xmlns="http://www.w3.org/2000/svg" xmlns:xlink="http://www.w3.org/1999/xlink"><g><path d="M34.58,38.38c0,1.649-1.35,3-3,3H17.303c-1.65,0-3-1.351-3-3   V9.309c0-1.65,1.35-3,3-3H31.58c1.65,0,3,1.35,3,3V38.38z" style="fill:none;stroke:#231F20;stroke-miterlimit:10;"/></g><rect height="20.555" style="fill:none;stroke:#231F20;stroke-miterlimit:10;" width="15.417" x="16.708" y="12.444"/><circle cx="24.53" cy="9.535" r="0.397" style="fill:#FFFFFF;stroke:#231F20;stroke-miterlimit:10;"/><circle cx="24.587" cy="37.281" r="1.984" style="fill:none;stroke:#231F20;stroke-miterlimit:10;"/><rect height="0.665" style="fill:#231F20;" transform="matrix(0.7071 0.7071 -0.7071 0.7071 18.262 -16.854)" width="2.967" x="27.992" y="13.285"/><rect height="0.665" style="fill:#231F20;" transform="matrix(0.7071 0.7071 -0.7071 0.7071 18.8182 -15.6933)" width="6.123" x="25.29" y="14.535"/><rect height="0.665" style="fill:#231F20;" transform="matrix(0.7071 0.7071 -0.7071 0.7071 19.2414 -14.5509)" width="9.923" x="22.224" y="15.62"/></svg>