<?xml version="1.0" ?><svg viewBox="0 0 48 48" xmlns="http://www.w3.org/2000/svg"><defs><style>.cls-1{fill:#7c7d7d;}.cls-2{fill:#c4455e;}.cls-3{fill:#db5669;}.cls-4{fill:#f26674;}</style></defs><title/><g data-name="Virus Corona" id="Virus_Corona"><path class="cls-1" d="M8.37,16.07c-.36,0-.16.06-4-2.12a1,1,0,0,1,1-1.73l3.48,2A1,1,0,0,1,8.37,16.07Z"/><path class="cls-1" d="M4.9,35.92a1,1,0,0,1-.5-1.87l3.48-2a1,1,0,0,1,1,1.74C5.06,36,5.26,35.92,4.9,35.92Z"/><path class="cls-1" d="M23,46V42a1,1,0,0,1,2,0v4A1,1,0,0,1,23,46Z"/><path class="cls-1" d="M39.63,16.07a1,1,0,0,1-.5-1.87l3.48-2a1,1,0,0,1,1,1.73C39.79,16.13,40,16.07,39.63,16.07Z"/><path class="cls-1" d="M43.1,35.92c-.36,0-.16,0-4-2.12a1,1,0,0,1,1-1.74l3.48,2A1,1,0,0,1,43.1,35.92Z"/><path class="cls-1" d="M23,6V2a1,1,0,0,1,2,0V6A1,1,0,0,1,23,6Z"/><path class="cls-2" d="M27,3.2a22.68,22.68,0,0,0-5.87,0,1,1,0,0,1-.26-2,23.43,23.43,0,0,1,6.26,0A1,1,0,0,1,27,3.2Z"/><path class="cls-3" d="M42,24A18,18,0,0,1,24,42C6.92,42-.48,20.39,12.86,9.86,24.54.66,42,8.89,42,24Z"/><path class="cls-4" d="M42,24a18,18,0,0,1-3.86,11.14A18,18,0,0,1,27,39C11.89,39,3.66,21.54,12.86,9.86,24.54.66,42,8.89,42,24Z"/><path class="cls-2" d="M44.42,16.79c-1.29,0-.76-1.65-3.78-5.6A1,1,0,0,1,42.23,10a23.81,23.81,0,0,1,3.11,5.44A1,1,0,0,1,44.42,16.79Z"/><path class="cls-1" d="M32,12a1,1,0,0,1-.86-1.51l3.47-5.78a1,1,0,0,1,1.71,1C32.55,12,32.76,12,32,12Z"/><path class="cls-2" d="M40.64,36.81a21.36,21.36,0,0,0,2.85-5,1,1,0,0,1,1.85.76A23.81,23.81,0,0,1,42.23,38,1,1,0,0,1,40.64,36.81Z"/><path class="cls-1" d="M35.47,43.78c-.77,0-.57,0-4.33-6.27a1,1,0,0,1,1.72-1l3.46,5.77A1,1,0,0,1,35.47,43.78Z"/><path class="cls-1" d="M16,12c-.77,0-.57,0-4.32-6.26a1,1,0,0,1,1.71-1l3.47,5.78A1,1,0,0,1,16,12Z"/><path class="cls-1" d="M12.53,43.78a1,1,0,0,1-.85-1.52l3.46-5.77a1,1,0,0,1,1.72,1C13.08,43.8,13.29,43.78,12.53,43.78Z"/><path class="cls-1" d="M9,25H2a1,1,0,0,1,0-2H9A1,1,0,0,1,9,25Z"/><path class="cls-1" d="M46,25H39a1,1,0,0,1,0-2h7A1,1,0,0,1,46,25Z"/><path class="cls-2" d="M25,21a6,6,0,1,1-9.12-5.12A6,6,0,0,1,25,21Z"/><path class="cls-3" d="M24.12,24.12c-5.3,3.26-11.53-2.9-8.24-8.24C21.2,12.6,27.39,18.81,24.12,24.12Z"/><path class="cls-2" d="M33,30a3,3,0,1,1-3.87-2.87A3,3,0,0,1,33,30Z"/><path class="cls-3" d="M32.87,30.87a3,3,0,0,1-3.74-3.74A3,3,0,0,1,32.87,30.87Z"/><path class="cls-2" d="M37.92,8C37.22,8,36,6.35,32.4,4.75a1,1,0,0,1,.81-1.83,23.62,23.62,0,0,1,5.34,3.26A1,1,0,0,1,37.92,8Z"/><path class="cls-2" d="M44.81,26.87a22.06,22.06,0,0,0,0-5.74,1,1,0,0,1,2-.26,23.43,23.43,0,0,1,0,6.26A1,1,0,0,1,44.81,26.87Z"/><path class="cls-2" d="M9.45,6.18a23.51,23.51,0,0,1,5.34-3.26,1,1,0,0,1,.81,1.83,21.31,21.31,0,0,0-4.89,3A1,1,0,0,1,9.45,6.18Z"/><path class="cls-3" d="M3.58,16.79a1,1,0,0,1-.92-1.38A23.81,23.81,0,0,1,5.77,10a1,1,0,0,1,1.59,1.22C4.37,15.11,4.89,16.79,3.58,16.79Z"/><path class="cls-2" d="M1.21,27.13a23.43,23.43,0,0,1,0-6.26,1,1,0,0,1,2,.26,22.06,22.06,0,0,0,0,5.74A1,1,0,0,1,1.21,27.13Z"/><path class="cls-2" d="M5.77,38a23.81,23.81,0,0,1-3.11-5.44,1,1,0,0,1,1.85-.76,21,21,0,0,0,2.85,5A1,1,0,0,1,5.77,38Z"/><path class="cls-2" d="M15.2,45.17c-.95,0-4.33-2.2-5.75-3.35a1,1,0,0,1,1.26-1.56,21.32,21.32,0,0,0,4.89,3A1,1,0,0,1,15.2,45.17Z"/><path class="cls-2" d="M20.87,46.79a1,1,0,0,1,.26-2,22.06,22.06,0,0,0,5.74,0,1,1,0,0,1,.26,2A23.43,23.43,0,0,1,20.87,46.79Z"/><path class="cls-2" d="M32.8,45.17a1,1,0,0,1-.4-1.92,21.31,21.31,0,0,0,4.89-3,1,1,0,0,1,1.26,1.56C37.53,42.64,33.82,45.17,32.8,45.17Z"/></g></svg>